RobotoCondensed-Light.ufo
<glyph name="O" format="2">
  <advance width="1208"/>
  <unicode hex="004F"/>
  <guideline x="0.0" y="901.0" angle="0.0" identifier="U1CSorZ1l7"/>
  <guideline x="0.0" y="555.0" angle="0.0" identifier="B5Q8PjTSX3"/>
  <guideline x="748.0" y="0.0" angle="90.0" identifier="fgs6Vk8xm0"/>
  <anchor x="603" y="1617" name="top"/>
  <anchor x="606" y="-1" name="bottom"/>
  <anchor x="1188" y="1600" name="top_dd"/>
  <anchor x="1188" y="-407" name="bottom_dd"/>
  <anchor x="1188" y="1617" name="top0315"/>
  <anchor x="603" y="1617" name="parent_top"/>
  <outline>
    <contour>
      <point x="1075" y="885" type="line"/>
      <point x="1075" y="1269"/>
      <point x="895" y="1476"/>
      <point x="603" y="1476" type="curve" smooth="yes"/>
      <point x="317" y="1476"/>
      <point x="133" y="1269"/>
      <point x="133" y="885" type="curve"/>
      <point x="133" y="570" type="line"/>
      <point x="133" y="186"/>
      <point x="319" y="-21"/>
      <point x="605" y="-21" type="curve" smooth="yes"/>
      <point x="896" y="-21"/>
      <point x="1075" y="186"/>
      <point x="1075" y="570" type="curve"/>
    </contour>
    <contour>
      <point x="961" y="570" type="line"/>
      <point x="961" y="250"/>
      <point x="837" y="89"/>
      <point x="605" y="89" type="curve" smooth="yes"/>
      <point x="380" y="89"/>
      <point x="247" y="250"/>
      <point x="247" y="570" type="curve" smooth="yes"/>
      <point x="247" y="887" type="line" smooth="yes"/>
      <point x="247" y="1205"/>
      <point x="378" y="1366"/>
      <point x="603" y="1366" type="curve" smooth="yes"/>
      <point x="835" y="1366"/>
      <point x="961" y="1205"/>
      <point x="961" y="887" type="curve"/>
    </contour>
  </outline>
</glyph>
<glyph name="j" format="2">
  <advance width="436"/>
  <unicode hex="006A"/>
  <guideline x="0.0" y="659.0" angle="0.0" identifier="BlWRZbvaA8"/>
  <guideline x="0.0" y="1005.0" angle="0.0" identifier="9ItAxt3jmC"/>
  <anchor x="207" y="1600" name="top"/>
  <anchor x="180" y="-459" name="bottom"/>
  <anchor x="416" y="1600" name="top_dd"/>
  <anchor x="416" y="-407" name="bottom_dd"/>
  <anchor x="416" y="1600" name="top0315"/>
  <anchor x="207" y="1600" name="parent_top"/>
  <outline>
    <contour>
      <point x="156" y="1082" type="line"/>
      <point x="156" y="-129" type="line"/>
      <point x="156" y="-264"/>
      <point x="106" y="-330"/>
      <point x="15" y="-330" type="curve" smooth="yes"/>
      <point x="-10" y="-330"/>
      <point x="-40" y="-324"/>
      <point x="-60" y="-317" type="curve"/>
      <point x="-61" y="-418" type="line"/>
      <point x="-35" y="-430"/>
      <point x="0" y="-437"/>
      <point x="29" y="-437" type="curve" smooth="yes"/>
      <point x="185" y="-437"/>
      <point x="268" y="-328"/>
      <point x="268" y="-129" type="curve"/>
      <point x="268" y="1082" type="line"/>
    </contour>
    <contour>
      <point x="139" y="1394" type="curve" smooth="yes"/>
      <point x="139" y="1349"/>
      <point x="166" y="1314"/>
      <point x="212" y="1314" type="curve" smooth="yes"/>
      <point x="258" y="1314"/>
      <point x="286" y="1349"/>
      <point x="286" y="1394" type="curve" smooth="yes"/>
      <point x="286" y="1440"/>
      <point x="258" y="1476"/>
      <point x="212" y="1476" type="curve" smooth="yes"/>
      <point x="166" y="1476"/>
      <point x="139" y="1440"/>
    </contour>
  </outline>
</glyph>
<glyph name="section" format="2">
  <advance width="1084"/>
  <unicode hex="00A7"/>
  <guideline x="0.0" y="1658.0" angle="0.0" identifier="zaYRwtpmxM"/>
  <guideline x="0.0" y="578.0" angle="0.0" identifier="e1UzklzWqy"/>
  <outline>
    <contour>
      <point x="602" y="132" type="line"/>
      <point x="822" y="132"/>
      <point x="965" y="247"/>
      <point x="965" y="431" type="curve"/>
      <point x="965" y="668"/>
      <point x="818" y="751"/>
      <point x="568" y="830" type="curve" smooth="yes"/>
      <point x="318" y="915"/>
      <point x="258" y="974"/>
      <point x="258" y="1122" type="curve"/>
      <point x="258" y="1260"/>
      <point x="347" y="1373"/>
      <point x="545" y="1373" type="curve" smooth="yes"/>
      <point x="733" y="1373"/>
      <point x="835" y="1226"/>
      <point x="835" y="1045" type="curve"/>
      <point x="946" y="1045" type="line"/>
      <point x="946" y="1323"/>
      <point x="794" y="1476"/>
      <point x="545" y="1476" type="curve" smooth="yes"/>
      <point x="303" y="1476"/>
      <point x="147" y="1335"/>
      <point x="147" y="1120" type="curve"/>
      <point x="147" y="888"/>
      <point x="287" y="801"/>
      <point x="522" y="728" type="curve" smooth="yes"/>
      <point x="776" y="640"/>
      <point x="854" y="572"/>
      <point x="854" y="428" type="curve"/>
      <point x="854" y="306"/>
      <point x="762" y="212"/>
      <point x="602" y="212" type="curve"/>
    </contour>
    <contour>
      <point x="456" y="853" type="line"/>
      <point x="245" y="853"/>
      <point x="109" y="735"/>
      <point x="109" y="551" type="curve" smooth="yes"/>
      <point x="109" y="313"/>
      <point x="263" y="220"/>
      <point x="508" y="146" type="curve"/>
      <point x="750" y="64"/>
      <point x="816" y="-3"/>
      <point x="816" y="-141" type="curve" smooth="yes"/>
      <point x="816" y="-284"/>
      <point x="713" y="-391"/>
      <point x="530" y="-391" type="curve" smooth="yes"/>
      <point x="383" y="-391"/>
      <point x="216" y="-313"/>
      <point x="216" y="-62" type="curve"/>
      <point x="104" y="-64" type="line"/>
      <point x="104" y="-388"/>
      <point x="321" y="-495"/>
      <point x="530" y="-495" type="curve" smooth="yes"/>
      <point x="770" y="-495"/>
      <point x="927" y="-364"/>
      <point x="927" y="-139" type="curve" smooth="yes"/>
      <point x="927" y="93"/>
      <point x="790" y="176"/>
      <point x="550" y="253" type="curve" smooth="yes"/>
      <point x="285" y="343"/>
      <point x="221" y="399"/>
      <point x="221" y="553" type="curve" smooth="yes"/>
      <point x="221" y="678"/>
      <point x="294" y="774"/>
      <point x="456" y="774" type="curve"/>
    </contour>
  </outline>
</glyph>
<glyph name="AE" format="2">
  <advance width="1614"/>
  <unicode hex="00C6"/>
  <anchor x="819" y="1612" name="top"/>
  <anchor x="1594" y="1600" name="top_dd"/>
  <anchor x="1594" y="1612" name="top0315"/>
  <anchor x="819" y="1612" name="parent_top"/>
  <outline>
    <contour>
      <point x="833" y="1356" type="line"/>
      <point x="846" y="1456" type="line"/>
      <point x="770" y="1456" type="line"/>
      <point x="30" y="0" type="line"/>
      <point x="165" y="0" type="line"/>
    </contour>
    <contour>
      <point x="918" y="503" type="line"/>
      <point x="326" y="503" type="line"/>
      <point x="326" y="388" type="line"/>
      <point x="918" y="388" type="line"/>
    </contour>
    <contour>
      <point x="1561" y="104" type="line"/>
      <point x="945" y="104" type="line"/>
      <point x="945" y="0" type="line"/>
      <point x="1561" y="0" type="line"/>
    </contour>
    <contour>
      <point x="923" y="1456" type="line"/>
      <point x="812" y="1456" type="line"/>
      <point x="864" y="0" type="line"/>
      <point x="975" y="0" type="line"/>
    </contour>
    <contour>
      <point x="1441" y="810" type="line"/>
      <point x="912" y="810" type="line"/>
      <point x="912" y="707" type="line"/>
      <point x="1441" y="707" type="line"/>
    </contour>
    <contour>
      <point x="1509" y="1456" type="line"/>
      <point x="894" y="1456" type="line"/>
      <point x="894" y="1352" type="line"/>
      <point x="1509" y="1352" type="line"/>
    </contour>
  </outline>
</glyph>
<glyph name="Oslash" format="2">
  <advance width="1208"/>
  <unicode hex="00D8"/>
  <anchor x="619" y="1674" name="top"/>
  <anchor x="1188" y="1600" name="top_dd"/>
  <anchor x="1188" y="1674" name="top0315"/>
  <anchor x="619" y="1674" name="parent_top"/>
  <outline>
    <contour>
      <point x="1096" y="1506" type="line"/>
      <point x="1003" y="1506" type="line"/>
      <point x="162" y="-84" type="line"/>
      <point x="256" y="-84" type="line"/>
    </contour>
    <contour>
      <point x="1083" y="805" type="line"/>
      <point x="1083" y="1213"/>
      <point x="895" y="1476"/>
      <point x="603" y="1476" type="curve" smooth="yes"/>
      <point x="317" y="1476"/>
      <point x="125" y="1213"/>
      <point x="125" y="805" type="curve"/>
      <point x="125" y="651" type="line"/>
      <point x="125" y="242"/>
      <point x="319" y="-20"/>
      <point x="605" y="-20" type="curve" smooth="yes"/>
      <point x="896" y="-20"/>
      <point x="1083" y="242"/>
      <point x="1083" y="651" type="curve"/>
    </contour>
    <contour>
      <point x="970" y="651" type="line"/>
      <point x="970" y="305"/>
      <point x="837" y="90"/>
      <point x="605" y="90" type="curve" smooth="yes"/>
      <point x="380" y="90"/>
      <point x="239" y="305"/>
      <point x="239" y="651" type="curve" smooth="yes"/>
      <point x="239" y="807" type="line" smooth="yes"/>
      <point x="239" y="1150"/>
      <point x="378" y="1366"/>
      <point x="603" y="1366" type="curve" smooth="yes"/>
      <point x="835" y="1366"/>
      <point x="970" y="1150"/>
      <point x="970" y="807" type="curve"/>
    </contour>
  </outline>
</glyph>
<glyph name="khook" format="2">
  <advance width="889"/>
  <unicode hex="0199"/>
  <guideline x="0.0" y="1557.0" angle="0.0" identifier="uhZnu0inoP"/>
  <outline>
    <contour>
      <point x="260" y="1181" type="line"/>
      <point x="149" y="1181" type="line"/>
      <point x="149" y="0" type="line"/>
      <point x="260" y="0" type="line"/>
    </contour>
    <contour>
      <point x="827" y="1082" type="line"/>
      <point x="688" y="1082" type="line"/>
      <point x="353" y="678" type="line"/>
      <point x="205" y="490" type="line"/>
      <point x="219" y="370" type="line"/>
      <point x="408" y="580" type="line"/>
    </contour>
    <contour>
      <point x="730" y="0" type="line"/>
      <point x="862" y="0" type="line"/>
      <point x="421" y="666" type="line"/>
      <point x="361" y="561" type="line"/>
    </contour>
    <contour>
      <point x="260" y="1131" type="line"/>
      <point x="260" y="1233" type="line" smooth="yes"/>
      <point x="260" y="1386"/>
      <point x="303" y="1462"/>
      <point x="402" y="1462" type="curve" smooth="yes"/>
      <point x="423" y="1462"/>
      <point x="450" y="1455"/>
      <point x="466" y="1449" type="curve"/>
      <point x="471" y="1539" type="line"/>
      <point x="443" y="1550"/>
      <point x="411" y="1557"/>
      <point x="382" y="1557" type="curve" smooth="yes"/>
      <point x="239" y="1557"/>
      <point x="149" y="1442"/>
      <point x="149" y="1233" type="curve" smooth="yes"/>
      <point x="149" y="1131" type="line"/>
    </contour>
  </outline>
</glyph>
<glyph name="YR" format="2">
  <advance width="1199"/>
  <unicode hex="01A6"/>
  <outline>
    <contour>
      <point x="171" y="1385" type="line" name="hr00"/>
      <point x="285" y="1385" type="line"/>
      <point x="285" y="1547" type="line"/>
      <point x="171" y="1547" type="line"/>
    </contour>
    <contour>
      <point x="171" y="1456" type="line"/>
      <point x="171" y="0" type="line"/>
      <point x="285" y="0" type="line"/>
      <point x="285" y="1349" type="line"/>
      <point x="570" y="1349" type="line" smooth="yes"/>
      <point x="768" y="1349"/>
      <point x="873" y="1225"/>
      <point x="873" y="1027" type="curve" smooth="yes"/>
      <point x="873" y="862"/>
      <point x="778" y="713"/>
      <point x="589" y="713" type="curve" smooth="yes"/>
      <point x="247" y="713" type="line"/>
      <point x="249" y="606" type="line"/>
      <point x="665" y="606" type="line"/>
      <point x="703" y="623" type="line"/>
      <point x="872" y="664"/>
      <point x="987" y="821"/>
      <point x="987" y="1027" type="curve" smooth="yes"/>
      <point x="987" y="1305"/>
      <point x="828" y="1456"/>
      <point x="570" y="1456" type="curve" smooth="yes"/>
    </contour>
    <contour>
      <point x="1093" y="-355" type="line"/>
      <point x="1216" y="-355" type="line"/>
      <point x="1216" y="-342" type="line"/>
      <point x="727" y="652" type="line"/>
      <point x="605" y="651" type="line"/>
    </contour>
  </outline>
</glyph>
<glyph name="Vcursive" format="2">
  <advance width="1183"/>
  <unicode hex="01B2"/>
  <outline>
    <contour>
      <point x="591" y="-21" type="curve" smooth="yes"/>
      <point x="829" y="-21"/>
      <point x="1024" y="142"/>
      <point x="1024" y="470" type="curve" smooth="yes"/>
      <point x="1024" y="1128" type="line" smooth="yes"/>
      <point x="1024" y="1353"/>
      <point x="939" y="1476"/>
      <point x="783" y="1476" type="curve" smooth="yes"/>
      <point x="752" y="1476"/>
      <point x="717" y="1469"/>
      <point x="687" y="1457" type="curve"/>
      <point x="693" y="1355" type="line"/>
      <point x="710" y="1362"/>
      <point x="738" y="1368"/>
      <point x="760" y="1368" type="curve" smooth="yes"/>
      <point x="867" y="1368"/>
      <point x="910" y="1288"/>
      <point x="910" y="1128" type="curve" smooth="yes"/>
      <point x="910" y="470" type="line" smooth="yes"/>
      <point x="910" y="216"/>
      <point x="778" y="86"/>
      <point x="591" y="86" type="curve" smooth="yes"/>
      <point x="405" y="86"/>
      <point x="273" y="216"/>
      <point x="273" y="470" type="curve" smooth="yes"/>
      <point x="273" y="1456" type="line"/>
      <point x="159" y="1456" type="line"/>
      <point x="159" y="470" type="line" smooth="yes"/>
      <point x="159" y="142"/>
      <point x="346" y="-21"/>
    </contour>
  </outline>
</glyph>
<glyph name="philatin" format="2">
  <advance width="1007"/>
  <unicode hex="0278"/>
  <guideline x="586.0" y="0.0" angle="90.0" identifier="CouYLxoFng"/>
  <anchor x="504" y="1600" name="top"/>
  <anchor x="504" y="-447" name="bottom"/>
  <anchor x="987" y="1600" name="top0315"/>
  <anchor x="504" y="1600" name="parent_top"/>
  <outline>
    <contour>
      <point x="97" y="525" type="line"/>
      <point x="97" y="210"/>
      <point x="257" y="-21"/>
      <point x="504" y="-21" type="curve" smooth="yes"/>
      <point x="752" y="-21"/>
      <point x="911" y="210"/>
      <point x="911" y="525" type="curve" smooth="yes"/>
      <point x="911" y="557" type="line" smooth="yes"/>
      <point x="911" y="872"/>
      <point x="752" y="1102"/>
      <point x="503" y="1102" type="curve" smooth="yes"/>
      <point x="257" y="1102"/>
      <point x="97" y="872"/>
      <point x="97" y="557" type="curve" smooth="yes"/>
    </contour>
    <contour>
      <point x="208" y="557" type="line"/>
      <point x="208" y="789"/>
      <point x="311" y="998"/>
      <point x="503" y="998" type="curve" smooth="yes"/>
      <point x="696" y="998"/>
      <point x="800" y="789"/>
      <point x="800" y="557" type="curve" smooth="yes"/>
      <point x="800" y="525" type="line" smooth="yes"/>
      <point x="800" y="288"/>
      <point x="696" y="83"/>
      <point x="504" y="83" type="curve" smooth="yes"/>
      <point x="311" y="83"/>
      <point x="208" y="288"/>
      <point x="208" y="525" type="curve" smooth="yes"/>
    </contour>
    <contour>
      <point x="448" y="-416" type="line"/>
      <point x="559" y="-416" type="line"/>
      <point x="559" y="1536" type="line"/>
      <point x="448" y="1536" type="line"/>
    </contour>
  </outline>
</glyph>
<glyph name="uni02D7" format="2">
  <advance width="524"/>
  <unicode hex="02D7"/>
  <outline>
    <contour>
      <point x="74" y="401" type="line"/>
      <point x="74" y="306" type="line"/>
      <point x="450" y="306" type="line"/>
      <point x="450" y="401" type="line"/>
    </contour>
  </outline>
</glyph>
<glyph name="candrabindunosp" format="2">
  <unicode hex="0310"/>
  <anchor x="-464" y="1189" name="_top"/>
  <anchor x="-464" y="1721" name="top"/>
  <anchor x="-464" y="1432" name="parent_top"/>
  <outline>
    <contour>
      <point x="-314" y="1486" type="line"/>
      <point x="-314" y="1395"/>
      <point x="-357" y="1316"/>
      <point x="-464" y="1316" type="curve" smooth="yes"/>
      <point x="-575" y="1316"/>
      <point x="-615" y="1394"/>
      <point x="-615" y="1486" type="curve"/>
      <point x="-709" y="1486" type="line"/>
      <point x="-709" y="1334"/>
      <point x="-616" y="1228"/>
      <point x="-464" y="1228" type="curve" smooth="yes"/>
      <point x="-313" y="1228"/>
      <point x="-220" y="1334"/>
      <point x="-220" y="1486" type="curve"/>
    </contour>
    <contour>
      <point x="-537" y="1555" type="curve" smooth="yes"/>
      <point x="-537" y="1510"/>
      <point x="-510" y="1475"/>
      <point x="-464" y="1475" type="curve" smooth="yes"/>
      <point x="-417" y="1475"/>
      <point x="-390" y="1510"/>
      <point x="-390" y="1555" type="curve" smooth="yes"/>
      <point x="-390" y="1601"/>
      <point x="-417" y="1637"/>
      <point x="-464" y="1637" type="curve" smooth="yes"/>
      <point x="-510" y="1637"/>
      <point x="-537" y="1601"/>
    </contour>
  </outline>
</glyph>
<glyph name="iotasubnosp" format="2">
  <unicode hex="0345"/>
  <anchor x="-466" y="0" name="_bottom"/>
  <anchor x="-466" y="-526" name="bottom"/>
  <outline>
    <contour>
      <point x="-508" y="-70" type="line"/>
      <point x="-508" y="-358" type="line" smooth="yes"/>
      <point x="-508" y="-478"/>
      <point x="-465" y="-526"/>
      <point x="-388" y="-526" type="curve" smooth="yes"/>
      <point x="-365" y="-526"/>
      <point x="-346" y="-522"/>
      <point x="-332" y="-517" type="curve"/>
      <point x="-334" y="-449" type="line"/>
      <point x="-345" y="-451"/>
      <point x="-360" y="-454"/>
      <point x="-375" y="-454" type="curve" smooth="yes"/>
      <point x="-404" y="-454"/>
      <point x="-424" y="-435"/>
      <point x="-424" y="-356" type="curve" smooth="yes"/>
      <point x="-424" y="-70" type="line"/>
    </contour>
  </outline>
</glyph>
<glyph name="uni034C" format="2">
  <unicode hex="034C"/>
  <anchor x="-459" y="1262" name="_top"/>
  <anchor x="-459" y="1668" name="top"/>
  <anchor x="-459" y="1668" name="parent_top"/>
  <outline>
    <contour>
      <point x="-247" y="1459" type="line"/>
      <point x="-247" y="1392"/>
      <point x="-288" y="1350"/>
      <point x="-338" y="1350" type="curve" smooth="yes"/>
      <point x="-429" y="1350"/>
      <point x="-466" y="1448"/>
      <point x="-570" y="1448" type="curve" smooth="yes"/>
      <point x="-664" y="1448"/>
      <point x="-737" y="1375"/>
      <point x="-737" y="1265" type="curve"/>
      <point x="-656" y="1262" type="line"/>
      <point x="-656" y="1328"/>
      <point x="-616" y="1367"/>
      <point x="-565" y="1367" type="curve" smooth="yes"/>
      <point x="-470" y="1367"/>
      <point x="-450" y="1268"/>
      <point x="-334" y="1268" type="curve" smooth="yes"/>
      <point x="-240" y="1268"/>
      <point x="-166" y="1343"/>
      <point x="-166" y="1454" type="curve"/>
    </contour>
    <contour>
      <point x="-247" y="1668" type="line"/>
      <point x="-247" y="1601"/>
      <point x="-288" y="1559"/>
      <point x="-338" y="1559" type="curve" smooth="yes"/>
      <point x="-429" y="1559"/>
      <point x="-466" y="1657"/>
      <point x="-570" y="1657" type="curve" smooth="yes"/>
      <point x="-664" y="1657"/>
      <point x="-737" y="1584"/>
      <point x="-737" y="1474" type="curve"/>
      <point x="-656" y="1471" type="line"/>
      <point x="-656" y="1537"/>
      <point x="-616" y="1576"/>
      <point x="-565" y="1576" type="curve" smooth="yes"/>
      <point x="-470" y="1576"/>
      <point x="-450" y="1478"/>
      <point x="-334" y="1478" type="curve" smooth="yes"/>
      <point x="-240" y="1478"/>
      <point x="-166" y="1552"/>
      <point x="-166" y="1663" type="curve"/>
    </contour>
  </outline>
</glyph>
<glyph name="uni035A" format="2">
  <unicode hex="035A"/>
  <anchor x="-462" y="39" name="_bottom"/>
  <anchor x="-462" y="-426" name="bottom"/>
  <outline>
    <contour>
      <point x="-762" y="-238" type="curve"/>
      <point x="-762" y="-346"/>
      <point x="-690" y="-426"/>
      <point x="-596" y="-426" type="curve" smooth="yes"/>
      <point x="-503" y="-426"/>
      <point x="-430" y="-346"/>
      <point x="-430" y="-238" type="curve" smooth="yes"/>
      <point x="-430" y="-131"/>
      <point x="-503" y="-47"/>
      <point x="-596" y="-47" type="curve" smooth="yes"/>
      <point x="-690" y="-47"/>
      <point x="-762" y="-131"/>
    </contour>
    <contour>
      <point x="-694" y="-238" type="curve"/>
      <point x="-694" y="-171"/>
      <point x="-653" y="-119"/>
      <point x="-596" y="-119" type="curve" smooth="yes"/>
      <point x="-539" y="-119"/>
      <point x="-498" y="-171"/>
      <point x="-498" y="-238" type="curve" smooth="yes"/>
      <point x="-498" y="-303"/>
      <point x="-539" y="-354"/>
      <point x="-596" y="-354" type="curve" smooth="yes"/>
      <point x="-653" y="-354"/>
      <point x="-694" y="-302"/>
    </contour>
    <contour>
      <point x="-493" y="-238" type="curve"/>
      <point x="-493" y="-346"/>
      <point x="-421" y="-426"/>
      <point x="-328" y="-426" type="curve" smooth="yes"/>
      <point x="-235" y="-426"/>
      <point x="-162" y="-346"/>
      <point x="-162" y="-238" type="curve" smooth="yes"/>
      <point x="-162" y="-131"/>
      <point x="-235" y="-47"/>
      <point x="-328" y="-47" type="curve" smooth="yes"/>
      <point x="-421" y="-47"/>
      <point x="-493" y="-131"/>
    </contour>
    <contour>
      <point x="-426" y="-238" type="curve"/>
      <point x="-426" y="-171"/>
      <point x="-385" y="-119"/>
      <point x="-328" y="-119" type="curve" smooth="yes"/>
      <point x="-271" y="-119"/>
      <point x="-230" y="-171"/>
      <point x="-230" y="-238" type="curve" smooth="yes"/>
      <point x="-230" y="-303"/>
      <point x="-271" y="-354"/>
      <point x="-328" y="-354" type="curve" smooth="yes"/>
      <point x="-385" y="-354"/>
      <point x="-426" y="-302"/>
    </contour>
  </outline>
</glyph>
<glyph name="uni035E" format="2">
  <unicode hex="035E"/>
  <anchor x="20" y="1261" name="_top_dd"/>
  <outline>
    <contour>
      <point x="505" y="1385" type="line"/>
      <point x="-466" y="1385" type="line"/>
      <point x="-466" y="1286" type="line"/>
      <point x="505" y="1286" type="line"/>
    </contour>
  </outline>
</glyph>
<glyph name="sigma" format="2">
  <advance width="1000"/>
  <unicode hex="03C3"/>
  <outline>
    <contour>
      <point x="500" y="-21" type="curve" smooth="yes"/>
      <point x="763" y="-21"/>
      <point x="892" y="176"/>
      <point x="892" y="515" type="curve" smooth="yes"/>
      <point x="892" y="545" type="line" smooth="yes"/>
      <point x="892" y="767"/>
      <point x="836" y="922"/>
      <point x="700" y="999" type="curve"/>
      <point x="700" y="976" type="line"/>
      <point x="970" y="976" type="line"/>
      <point x="970" y="1082" type="line"/>
      <point x="506" y="1082" type="line" smooth="yes"/>
      <point x="256" y="1082"/>
      <point x="107" y="904"/>
      <point x="107" y="541" type="curve" smooth="yes"/>
      <point x="107" y="511" type="line" smooth="yes"/>
      <point x="107" y="172"/>
      <point x="238" y="-21"/>
    </contour>
    <contour>
      <point x="500" y="83" type="curve" smooth="yes"/>
      <point x="294" y="83"/>
      <point x="218" y="246"/>
      <point x="218" y="509" type="curve" smooth="yes"/>
      <point x="218" y="542" type="line" smooth="yes"/>
      <point x="218" y="801"/>
      <point x="285" y="981"/>
      <point x="503" y="981" type="curve" smooth="yes"/>
      <point x="699" y="981"/>
      <point x="781" y="812"/>
      <point x="781" y="546" type="curve" smooth="yes"/>
      <point x="781" y="513" type="line" smooth="yes"/>
      <point x="781" y="250"/>
      <point x="710" y="83"/>
    </contour>
  </outline>
</glyph>
<glyph name="phi" format="2">
  <advance width="1226"/>
  <unicode hex="03C6"/>
  <outline>
    <contour>
      <point x="556" y="-416" type="line"/>
      <point x="667" y="-416" type="line"/>
      <point x="667" y="-21" type="line"/>
      <point x="915" y="-8"/>
      <point x="1106" y="138"/>
      <point x="1106" y="496" type="curve" smooth="yes"/>
      <point x="1106" y="593" type="line" smooth="yes"/>
      <point x="1106" y="944"/>
      <point x="915" y="1089"/>
      <point x="667" y="1102" type="curve"/>
      <point x="667" y="1536" type="line"/>
      <point x="556" y="1536" type="line"/>
      <point x="556" y="1102" type="line"/>
      <point x="307" y="1089"/>
      <point x="117" y="934"/>
      <point x="117" y="593" type="curve" smooth="yes"/>
      <point x="117" y="496" type="line" smooth="yes"/>
      <point x="117" y="138"/>
      <point x="307" y="-8"/>
      <point x="556" y="-21" type="curve"/>
    </contour>
    <contour>
      <point x="556" y="80" type="line"/>
      <point x="361" y="94"/>
      <point x="228" y="219"/>
      <point x="228" y="494" type="curve" smooth="yes"/>
      <point x="228" y="585" type="line" smooth="yes"/>
      <point x="228" y="843"/>
      <point x="349" y="988"/>
      <point x="556" y="1001" type="curve"/>
    </contour>
    <contour>
      <point x="667" y="80" type="curve"/>
      <point x="667" y="1001" type="line"/>
      <point x="862" y="988"/>
      <point x="995" y="843"/>
      <point x="995" y="585" type="curve" smooth="yes"/>
      <point x="995" y="494" type="line" smooth="yes"/>
      <point x="995" y="239"/>
      <point x="874" y="94"/>
    </contour>
  </outline>
</glyph>
<glyph name="Kaisymbol" format="2">
  <advance width="1124"/>
  <unicode hex="03CF"/>
  <outline>
    <contour>
      <point x="463" y="-589" type="line"/>
      <point x="1080" y="0" type="line"/>
      <point x="532" y="809" type="line"/>
      <point x="1040" y="1456" type="line"/>
      <point x="898" y="1456" type="line"/>
      <point x="447" y="880" type="line"/>
      <point x="287" y="682" type="line"/>
      <point x="287" y="1456" type="line"/>
      <point x="173" y="1456" type="line"/>
      <point x="173" y="0" type="line"/>
      <point x="287" y="0" type="line"/>
      <point x="287" y="523" type="line"/>
      <point x="456" y="719" type="line"/>
      <point x="941" y="0" type="line"/>
      <point x="395" y="-515" type="line"/>
    </contour>
  </outline>
</glyph>
<glyph name="uni041B" format="2">
  <advance width="1250"/>
  <unicode hex="041B"/>
  <anchor x="637" y="10" name="bottom"/>
  <outline>
    <contour>
      <point x="981" y="1456" type="line"/>
      <point x="390" y="1456" type="line"/>
      <point x="390" y="1349" type="line"/>
      <point x="981" y="1349" type="line"/>
    </contour>
    <contour>
      <point x="1075" y="1456" type="line"/>
      <point x="960" y="1456" type="line"/>
      <point x="960" y="0" type="line"/>
      <point x="1075" y="0" type="line"/>
    </contour>
    <contour>
      <point x="349" y="1456" type="line"/>
      <point x="321" y="798" type="line" smooth="yes"/>
      <point x="297" y="260"/>
      <point x="251" y="115"/>
      <point x="87" y="108" type="curve" smooth="yes"/>
      <point x="55" y="107" type="line"/>
      <point x="55" y="0" type="line"/>
      <point x="93" y="0" type="line" smooth="yes"/>
      <point x="348" y="0"/>
      <point x="407" y="228"/>
      <point x="433" y="782" type="curve" smooth="yes"/>
      <point x="464" y="1456" type="line"/>
    </contour>
  </outline>
</glyph>
<glyph name="uni0448" format="2">
  <advance width="1410"/>
  <unicode hex="0448"/>
  <anchor x="715" y="1269" name="top"/>
  <anchor x="1390" y="1269" name="top0315"/>
  <anchor x="715" y="1269" name="parent_top"/>
  <outline>
    <contour>
      <point x="157" y="1082" type="line"/>
      <point x="157" y="0" type="line"/>
      <point x="1268" y="0" type="line"/>
      <point x="1268" y="1082" type="line"/>
      <point x="1157" y="1082" type="line"/>
      <point x="1157" y="104" type="line"/>
      <point x="770" y="104" type="line"/>
      <point x="770" y="1082" type="line"/>
      <point x="659" y="1082" type="line"/>
      <point x="659" y="104" type="line"/>
      <point x="268" y="104" type="line"/>
      <point x="268" y="1082" type="line"/>
    </contour>
  </outline>
</glyph>
<glyph name="uni04C8" format="2">
  <advance width="1001"/>
  <unicode hex="04C8"/>
  <outline>
    <contour>
      <point x="151" y="1082" type="line"/>
      <point x="151" y="0" type="line"/>
      <point x="262" y="0" type="line"/>
      <point x="262" y="495" type="line"/>
      <point x="739" y="495" type="line"/>
      <point x="739" y="-89" type="line" smooth="yes"/>
      <point x="739" y="-244"/>
      <point x="685" y="-333"/>
      <point x="591" y="-333" type="curve" smooth="yes"/>
      <point x="570" y="-333"/>
      <point x="526" y="-326"/>
      <point x="509" y="-318" type="curve"/>
      <point x="497" y="-418" type="line"/>
      <point x="530" y="-431"/>
      <point x="557" y="-437"/>
      <point x="591" y="-437" type="curve" smooth="yes"/>
      <point x="753" y="-437"/>
      <point x="850" y="-314"/>
      <point x="850" y="-89" type="curve" smooth="yes"/>
      <point x="850" y="1082" type="line"/>
      <point x="739" y="1082" type="line"/>
      <point x="739" y="599" type="line"/>
      <point x="262" y="599" type="line"/>
      <point x="262" y="1082" type="line"/>
    </contour>
  </outline>
</glyph>
<glyph name="uni1D37" format="2">
  <advance width="846"/>
  <unicode hex="1D37"/>
  <outline>
    <contour>
      <point x="215" y="1728" type="line"/>
      <point x="112" y="1728" type="line"/>
      <point x="112" y="651" type="line"/>
      <point x="215" y="651" type="line"/>
    </contour>
    <contour>
      <point x="766" y="1728" type="line"/>
      <point x="636" y="1728" type="line"/>
      <point x="318" y="1305" type="line"/>
      <point x="169" y="1109" type="line"/>
      <point x="178" y="974" type="line"/>
      <point x="377" y="1217" type="line"/>
    </contour>
    <contour>
      <point x="677" y="651" type="line"/>
      <point x="801" y="651" type="line"/>
      <point x="388" y="1293" type="line"/>
      <point x="323" y="1202" type="line"/>
    </contour>
  </outline>
</glyph>
<glyph name="uni1D44" format="2">
  <advance width="744"/>
  <unicode hex="1D44"/>
  <outline>
    <contour>
      <point x="230" y="1308" type="line"/>
      <point x="230" y="1356"/>
      <point x="219" y="1416"/>
      <point x="205" y="1450" type="curve"/>
      <point x="96" y="1450" type="line"/>
      <point x="96" y="1442" type="line"/>
      <point x="114" y="1403"/>
      <point x="127" y="1338"/>
      <point x="127" y="1282" type="curve" smooth="yes"/>
      <point x="127" y="905" type="line" smooth="yes"/>
      <point x="127" y="722"/>
      <point x="238" y="635"/>
      <point x="382" y="635" type="curve" smooth="yes"/>
      <point x="537" y="635"/>
      <point x="646" y="757"/>
      <point x="646" y="877" type="curve"/>
      <point x="550" y="878" type="line"/>
      <point x="543" y="792"/>
      <point x="487" y="736"/>
      <point x="386" y="736" type="curve" smooth="yes"/>
      <point x="277" y="736"/>
      <point x="230" y="801"/>
      <point x="230" y="911" type="curve" smooth="yes"/>
    </contour>
    <contour>
      <point x="201" y="973" type="line"/>
      <point x="360" y="973" type="line" smooth="yes"/>
      <point x="547" y="973"/>
      <point x="666" y="1079"/>
      <point x="666" y="1240" type="curve" smooth="yes"/>
      <point x="666" y="1374"/>
      <point x="582" y="1466"/>
      <point x="448" y="1466" type="curve" smooth="yes"/>
      <point x="293" y="1466"/>
      <point x="196" y="1347"/>
      <point x="172" y="1242" type="curve"/>
      <point x="207" y="1179" type="line"/>
      <point x="225" y="1284"/>
      <point x="318" y="1366"/>
      <point x="431" y="1366" type="curve" smooth="yes"/>
      <point x="517" y="1366"/>
      <point x="563" y="1311"/>
      <point x="563" y="1228" type="curve" smooth="yes"/>
      <point x="563" y="1121"/>
      <point x="488" y="1062"/>
      <point x="343" y="1062" type="curve" smooth="yes"/>
      <point x="199" y="1062" type="line"/>
    </contour>
  </outline>
</glyph>
<glyph name="uni1D54" format="2">
  <advance width="719"/>
  <unicode hex="1D54"/>
  <outline>
    <contour>
      <point x="665" y="1036" type="line"/>
      <point x="665" y="1060" type="line" smooth="yes"/>
      <point x="665" y="1298"/>
      <point x="543" y="1463"/>
      <point x="359" y="1463" type="curve" smooth="yes"/>
      <point x="177" y="1463"/>
      <point x="54" y="1298"/>
      <point x="54" y="1060" type="curve" smooth="yes"/>
      <point x="54" y="1036" type="line"/>
      <point x="157" y="1036" type="line"/>
      <point x="157" y="1060" type="line" smooth="yes"/>
      <point x="157" y="1232"/>
      <point x="226" y="1363"/>
      <point x="359" y="1363" type="curve" smooth="yes"/>
      <point x="492" y="1363"/>
      <point x="562" y="1232"/>
      <point x="562" y="1060" type="curve" smooth="yes"/>
      <point x="562" y="1036" type="line"/>
    </contour>
  </outline>
</glyph>
<glyph name="uni1D82" format="2">
  <advance width="615"/>
  <unicode hex="1D82"/>
  <anchor x="460" y="1698" name="top"/>
  <anchor x="278" y="-447" name="bottom"/>
  <anchor x="595" y="1698" name="top0315"/>
  <anchor x="460" y="1698" name="parent_top"/>
  <outline>
    <contour>
      <point x="311" y="104" type="line"/>
      <point x="311" y="-113" type="line" smooth="yes"/>
      <point x="311" y="-266"/>
      <point x="268" y="-342"/>
      <point x="169" y="-342" type="curve" smooth="yes"/>
      <point x="148" y="-342"/>
      <point x="121" y="-335"/>
      <point x="106" y="-329" type="curve"/>
      <point x="100" y="-419" type="line"/>
      <point x="128" y="-430"/>
      <point x="160" y="-437"/>
      <point x="189" y="-437" type="curve" smooth="yes"/>
      <point x="332" y="-437"/>
      <point x="422" y="-322"/>
      <point x="422" y="-113" type="curve" smooth="yes"/>
      <point x="422" y="104" type="line"/>
    </contour>
    <contour>
      <point x="333" y="0" type="line"/>
      <point x="333" y="1216" type="line"/>
      <point x="333" y="1365"/>
      <point x="398" y="1450"/>
      <point x="505" y="1450" type="curve" smooth="yes"/>
      <point x="541" y="1450"/>
      <point x="569" y="1446"/>
      <point x="596" y="1438" type="curve"/>
      <point x="603" y="1540" type="line"/>
      <point x="569" y="1552"/>
      <point x="531" y="1557"/>
      <point x="496" y="1557" type="curve" smooth="yes"/>
      <point x="326" y="1557"/>
      <point x="222" y="1436"/>
      <point x="222" y="1216" type="curve"/>
      <point x="222" y="0" type="line"/>
    </contour>
    <contour>
      <point x="546" y="1082" type="line"/>
      <point x="73" y="1082" type="line"/>
      <point x="73" y="982" type="line"/>
      <point x="546" y="982" type="line"/>
    </contour>
  </outline>
</glyph>
<glyph name="uni1DCC" format="2">
  <unicode hex="1DCC"/>
  <anchor x="-478" y="1170" name="_top"/>
  <outline>
    <contour>
      <point x="-227" y="1233" type="curve" smooth="yes"/>
      <point x="-75" y="1233"/>
      <point x="17" y="1339"/>
      <point x="17" y="1491" type="curve"/>
      <point x="-76" y="1491" type="line"/>
      <point x="-76" y="1400"/>
      <point x="-119" y="1321"/>
      <point x="-227" y="1321" type="curve" smooth="yes"/>
      <point x="-337" y="1321"/>
      <point x="-378" y="1399"/>
      <point x="-378" y="1491" type="curve"/>
      <point x="-974" y="1491" type="line"/>
      <point x="-974" y="1392" type="line"/>
      <point x="-450" y="1392" type="line"/>
      <point x="-419" y="1295"/>
      <point x="-339" y="1233"/>
    </contour>
  </outline>
</glyph>
<glyph name="uni1DE6" format="2">
  <unicode hex="1DE6"/>
  <anchor x="-464" y="1170" name="_top"/>
  <outline>
    <contour>
      <point x="-282" y="1273" type="line"/>
      <point x="-626" y="1273" type="line"/>
      <point x="-626" y="1202" type="line"/>
      <point x="-282" y="1202" type="line"/>
    </contour>
    <contour>
      <point x="-299" y="1687" type="line"/>
      <point x="-299" y="1754" type="line"/>
      <point x="-335" y="1754" type="line"/>
      <point x="-646" y="1269" type="line"/>
      <point x="-646" y="1202" type="line"/>
      <point x="-607" y="1202" type="line"/>
    </contour>
    <contour>
      <point x="-324" y="1754" type="line"/>
      <point x="-639" y="1754" type="line"/>
      <point x="-639" y="1682" type="line"/>
      <point x="-324" y="1682" type="line"/>
    </contour>
  </outline>
</glyph>
<glyph name="uni2050" format="2">
  <advance width="1291"/>
  <unicode hex="2050"/>
  <outline>
    <contour>
      <point x="645.0" y="-445.0" type="curve" smooth="yes"/>
      <point x="959.0" y="-445.0"/>
      <point x="1144.0" y="-325.0"/>
      <point x="1262.0" y="-183.0" type="curve"/>
      <point x="1206.0" y="-125.0" type="line"/>
      <point x="1085.0" y="-234.0"/>
      <point x="910.0" y="-323.0"/>
      <point x="645.0" y="-323.0" type="curve" smooth="yes"/>
      <point x="381.0" y="-323.0"/>
      <point x="214.0" y="-238.0"/>
      <point x="93.0" y="-126.0" type="curve"/>
      <point x="29.0" y="-183.0" type="line"/>
      <point x="161.0" y="-330.0"/>
      <point x="332.0" y="-445.0"/>
    </contour>
    <contour>
      <point x="645.0" y="1517.0" type="curve" smooth="yes"/>
      <point x="959.0" y="1517.0"/>
      <point x="1144.0" y="1397.0"/>
      <point x="1262.0" y="1255.0" type="curve"/>
      <point x="1206.0" y="1197.0" type="line"/>
      <point x="1085.0" y="1306.0"/>
      <point x="910.0" y="1395.0"/>
      <point x="645.0" y="1395.0" type="curve" smooth="yes"/>
      <point x="381.0" y="1395.0"/>
      <point x="214.0" y="1310.0"/>
      <point x="93.0" y="1198.0" type="curve"/>
      <point x="29.0" y="1255.0" type="line"/>
      <point x="161.0" y="1402.0"/>
      <point x="332.0" y="1517.0"/>
    </contour>
  </outline>
</glyph>
<glyph name="uni2188" format="2">
  <advance width="1663"/>
  <unicode hex="2188"/>
  <outline>
    <contour>
      <point x="880" y="0" type="line"/>
      <point x="998" y="0" type="line" smooth="yes"/>
      <point x="1317" y="0"/>
      <point x="1532" y="261"/>
      <point x="1532" y="662" type="curve" smooth="yes"/>
      <point x="1532" y="794" type="line" smooth="yes"/>
      <point x="1532" y="1195"/>
      <point x="1316" y="1456"/>
      <point x="1007" y="1456" type="curve" smooth="yes"/>
      <point x="875" y="1456" type="line"/>
      <point x="875" y="1362" type="line"/>
      <point x="1007" y="1362" type="line" smooth="yes"/>
      <point x="1260" y="1362"/>
      <point x="1431" y="1144"/>
      <point x="1431" y="797" type="curve" smooth="yes"/>
      <point x="1431" y="662" type="line" smooth="yes"/>
      <point x="1431" y="321"/>
      <point x="1263" y="94"/>
      <point x="998" y="94" type="curve" smooth="yes"/>
      <point x="880" y="94" type="line"/>
    </contour>
    <contour>
      <point x="847" y="385" type="line"/>
      <point x="896" y="385" type="line" smooth="yes"/>
      <point x="1070" y="385"/>
      <point x="1165" y="509"/>
      <point x="1165" y="696" type="curve" smooth="yes"/>
      <point x="1165" y="763" type="line" smooth="yes"/>
      <point x="1165" y="950"/>
      <point x="1069" y="1074"/>
      <point x="899" y="1074" type="curve" smooth="yes"/>
      <point x="827" y="1074" type="line"/>
      <point x="827" y="980" type="line"/>
      <point x="899" y="980" type="line" smooth="yes"/>
      <point x="1008" y="980"/>
      <point x="1068" y="903"/>
      <point x="1068" y="764" type="curve" smooth="yes"/>
      <point x="1068" y="696" type="line" smooth="yes"/>
      <point x="1068" y="560"/>
      <point x="1010" y="478"/>
      <point x="896" y="478" type="curve" smooth="yes"/>
      <point x="847" y="478" type="line"/>
    </contour>
    <contour>
      <point x="876" y="194" type="line"/>
      <point x="959" y="194" type="line" smooth="yes"/>
      <point x="1197" y="194"/>
      <point x="1347" y="387"/>
      <point x="1347" y="680" type="curve" smooth="yes"/>
      <point x="1347" y="774" type="line" smooth="yes"/>
      <point x="1347" y="1068"/>
      <point x="1195" y="1261"/>
      <point x="966" y="1261" type="curve" smooth="yes"/>
      <point x="872" y="1261" type="line"/>
      <point x="872" y="1166" type="line"/>
      <point x="966" y="1166" type="line" smooth="yes"/>
      <point x="1136" y="1166"/>
      <point x="1246" y="1025"/>
      <point x="1246" y="776" type="curve" smooth="yes"/>
      <point x="1246" y="680" type="line" smooth="yes"/>
      <point x="1246" y="436"/>
      <point x="1138" y="288"/>
      <point x="959" y="288" type="curve" smooth="yes"/>
      <point x="876" y="288" type="line"/>
    </contour>
    <contour>
      <point x="783" y="0" type="line"/>
      <point x="783" y="94" type="line"/>
      <point x="664" y="94" type="line" smooth="yes"/>
      <point x="400" y="94"/>
      <point x="231" y="321"/>
      <point x="231" y="662" type="curve" smooth="yes"/>
      <point x="231" y="797" type="line" smooth="yes"/>
      <point x="231" y="1144"/>
      <point x="403" y="1362"/>
      <point x="655" y="1362" type="curve" smooth="yes"/>
      <point x="788" y="1362" type="line"/>
      <point x="788" y="1456" type="line"/>
      <point x="655" y="1456" type="line" smooth="yes"/>
      <point x="347" y="1456"/>
      <point x="130" y="1195"/>
      <point x="130" y="794" type="curve" smooth="yes"/>
      <point x="130" y="662" type="line" smooth="yes"/>
      <point x="130" y="261"/>
      <point x="345" y="0"/>
      <point x="664" y="0" type="curve" smooth="yes"/>
    </contour>
    <contour>
      <point x="776" y="0" type="line"/>
      <point x="887" y="0" type="line"/>
      <point x="887" y="1456" type="line"/>
      <point x="776" y="1456" type="line"/>
    </contour>
    <contour>
      <point x="819" y="385" type="line"/>
      <point x="819" y="478" type="line"/>
      <point x="765" y="478" type="line" smooth="yes"/>
      <point x="652" y="478"/>
      <point x="593" y="560"/>
      <point x="593" y="696" type="curve" smooth="yes"/>
      <point x="593" y="764" type="line" smooth="yes"/>
      <point x="593" y="903"/>
      <point x="653" y="980"/>
      <point x="762" y="980" type="curve" smooth="yes"/>
      <point x="835" y="980" type="line"/>
      <point x="835" y="1074" type="line"/>
      <point x="762" y="1074" type="line" smooth="yes"/>
      <point x="592" y="1074"/>
      <point x="497" y="950"/>
      <point x="497" y="763" type="curve" smooth="yes"/>
      <point x="497" y="696" type="line" smooth="yes"/>
      <point x="497" y="509"/>
      <point x="591" y="385"/>
      <point x="765" y="385" type="curve" smooth="yes"/>
    </contour>
    <contour>
      <point x="787" y="194" type="line"/>
      <point x="787" y="288" type="line"/>
      <point x="703" y="288" type="line" smooth="yes"/>
      <point x="524" y="288"/>
      <point x="416" y="436"/>
      <point x="416" y="680" type="curve" smooth="yes"/>
      <point x="416" y="776" type="line" smooth="yes"/>
      <point x="416" y="1025"/>
      <point x="526" y="1166"/>
      <point x="697" y="1166" type="curve" smooth="yes"/>
      <point x="791" y="1166" type="line"/>
      <point x="791" y="1261" type="line"/>
      <point x="697" y="1261" type="line" smooth="yes"/>
      <point x="468" y="1261"/>
      <point x="315" y="1068"/>
      <point x="315" y="774" type="curve" smooth="yes"/>
      <point x="315" y="680" type="line" smooth="yes"/>
      <point x="315" y="387"/>
      <point x="465" y="194"/>
      <point x="703" y="194" type="curve" smooth="yes"/>
    </contour>
  </outline>
</glyph>
<glyph name="uni2C7E" format="2">
  <advance width="1059"/>
  <unicode hex="2C7E"/>
  <outline>
    <contour>
      <point x="161" y="170" type="line"/>
      <point x="404" y="-223"/>
      <point x="564" y="-437"/>
      <point x="763" y="-437" type="curve" smooth="yes"/>
      <point x="821" y="-437"/>
      <point x="863" y="-427"/>
      <point x="893" y="-414" type="curve"/>
      <point x="893" y="-309" type="line"/>
      <point x="867" y="-318"/>
      <point x="828" y="-329"/>
      <point x="786" y="-329" type="curve" smooth="yes"/>
      <point x="651" y="-329"/>
      <point x="516" y="-198"/>
      <point x="300" y="170" type="curve"/>
    </contour>
    <contour>
      <point x="857" y="359" type="curve" smooth="yes"/>
      <point x="857" y="195"/>
      <point x="738" y="87"/>
      <point x="551" y="87" type="curve" smooth="yes"/>
      <point x="386" y="87"/>
      <point x="208" y="173"/>
      <point x="208" y="417" type="curve"/>
      <point x="93" y="417" type="line"/>
      <point x="93" y="109"/>
      <point x="332" y="-20"/>
      <point x="551" y="-20" type="curve" smooth="yes"/>
      <point x="797" y="-20"/>
      <point x="973" y="123"/>
      <point x="973" y="361" type="curve"/>
      <point x="973" y="596"/>
      <point x="830" y="710"/>
      <point x="567" y="794" type="curve"/>
      <point x="329" y="872"/>
      <point x="247" y="963"/>
      <point x="247" y="1102" type="curve"/>
      <point x="247" y="1248"/>
      <point x="347" y="1369"/>
      <point x="544" y="1369" type="curve" smooth="yes"/>
      <point x="740" y="1369"/>
      <point x="851" y="1230"/>
      <point x="851" y="1041" type="curve"/>
      <point x="965" y="1041" type="line"/>
      <point x="965" y="1283"/>
      <point x="804" y="1476"/>
      <point x="544" y="1476" type="curve" smooth="yes"/>
      <point x="301" y="1476"/>
      <point x="132" y="1324"/>
      <point x="132" y="1099" type="curve"/>
      <point x="132" y="870"/>
      <point x="286" y="766"/>
      <point x="531" y="683" type="curve"/>
      <point x="781" y="598"/>
      <point x="857" y="518"/>
    </contour>
  </outline>
</glyph>
<glyph name="uni2E01" format="2">
  <advance width="694"/>
  <unicode hex="2E01"/>
  <outline>
    <contour>
      <point x="607" y="1451" type="line"/>
      <point x="161" y="1451" type="line"/>
      <point x="161" y="1351" type="line"/>
      <point x="607" y="1351" type="line"/>
    </contour>
    <contour>
      <point x="190" y="1451" type="line"/>
      <point x="87" y="1451" type="line"/>
      <point x="87" y="651" type="line"/>
      <point x="190" y="651" type="line"/>
    </contour>
    <contour>
      <point x="319" y="1018" type="curve" smooth="yes"/>
      <point x="319" y="973"/>
      <point x="346" y="938"/>
      <point x="392" y="938" type="curve" smooth="yes"/>
      <point x="439" y="938"/>
      <point x="466" y="973"/>
      <point x="466" y="1018" type="curve" smooth="yes"/>
      <point x="466" y="1064"/>
      <point x="439" y="1100"/>
      <point x="392" y="1100" type="curve" smooth="yes"/>
      <point x="346" y="1100"/>
      <point x="319" y="1064"/>
    </contour>
  </outline>
</glyph>
<glyph name="uni2E1D" format="2">
  <advance width="730"/>
  <unicode hex="2E1D"/>
  <outline>
    <contour>
      <point x="603" y="652" type="line"/>
      <point x="115" y="-279" type="line"/>
      <point x="47" y="-230" type="line"/>
      <point x="535" y="701" type="line"/>
    </contour>
  </outline>
</glyph>
<glyph name="uni2E3F" format="2">
  <advance width="941"/>
  <unicode hex="2E3F"/>
  <guideline x="0.0" y="-269.0" angle="0.0" identifier="gTi3rVw4oH"/>
  <outline>
    <contour>
      <point x="445" y="1456" type="line"/>
      <point x="352" y="1456" type="line"/>
      <point x="352" y="-270" type="line"/>
      <point x="445" y="-270" type="line"/>
    </contour>
    <contour>
      <point x="603" y="1456" type="line"/>
      <point x="510" y="1456" type="line"/>
      <point x="510" y="-270" type="line"/>
      <point x="603" y="-270" type="line"/>
    </contour>
    <contour>
      <point x="772" y="676" type="line"/>
      <point x="709" y="598"/>
      <point x="580" y="562"/>
      <point x="488" y="562" type="curve" smooth="yes"/>
      <point x="296" y="562"/>
      <point x="190" y="681"/>
      <point x="190" y="866" type="curve" smooth="yes"/>
      <point x="190" y="908" type="line" smooth="yes"/>
      <point x="190" y="1081"/>
      <point x="301" y="1218"/>
      <point x="488" y="1218" type="curve" smooth="yes"/>
      <point x="589" y="1218"/>
      <point x="698" y="1193"/>
      <point x="769" y="1086" type="curve"/>
      <point x="839" y="1162" type="line"/>
      <point x="754" y="1272"/>
      <point x="632" y="1322"/>
      <point x="488" y="1322" type="curve" smooth="yes"/>
      <point x="254" y="1322"/>
      <point x="78" y="1156"/>
      <point x="78" y="908" type="curve" smooth="yes"/>
      <point x="78" y="866" type="line" smooth="yes"/>
      <point x="78" y="618"/>
      <point x="235" y="458"/>
      <point x="488" y="458" type="curve" smooth="yes"/>
      <point x="613" y="458"/>
      <point x="753" y="510"/>
      <point x="823" y="596" type="curve"/>
    </contour>
  </outline>
</glyph>
<glyph name="uniA644" format="2">
  <advance width="1059"/>
  <unicode hex="A644"/>
  <outline>
    <contour>
      <point x="509" y="-20" type="curve" smooth="yes"/>
      <point x="728" y="-20"/>
      <point x="966" y="109"/>
      <point x="966" y="417" type="curve"/>
      <point x="852" y="417" type="line"/>
      <point x="852" y="173"/>
      <point x="674" y="87"/>
      <point x="509" y="87" type="curve" smooth="yes"/>
      <point x="321" y="87"/>
      <point x="202" y="195"/>
      <point x="202" y="359" type="curve" smooth="yes"/>
      <point x="202" y="518"/>
      <point x="279" y="598"/>
      <point x="528" y="683" type="curve" smooth="yes"/>
      <point x="773" y="766"/>
      <point x="927" y="870"/>
      <point x="927" y="1099" type="curve" smooth="yes"/>
      <point x="927" y="1324"/>
      <point x="759" y="1476"/>
      <point x="516" y="1476" type="curve" smooth="yes"/>
      <point x="255" y="1476"/>
      <point x="94" y="1283"/>
      <point x="94" y="1041" type="curve"/>
      <point x="209" y="1041" type="line"/>
      <point x="209" y="1230"/>
      <point x="319" y="1369"/>
      <point x="516" y="1369" type="curve" smooth="yes"/>
      <point x="712" y="1369"/>
      <point x="812" y="1248"/>
      <point x="812" y="1102" type="curve" smooth="yes"/>
      <point x="812" y="963"/>
      <point x="731" y="872"/>
      <point x="492" y="794" type="curve" smooth="yes"/>
      <point x="230" y="710"/>
      <point x="87" y="596"/>
      <point x="87" y="361" type="curve" smooth="yes"/>
      <point x="87" y="123"/>
      <point x="263" y="-20"/>
    </contour>
  </outline>
</glyph>
<glyph name="uniA658" format="2">
  <advance width="1124"/>
  <unicode hex="A658"/>
  <outline>
    <contour>
      <point x="1015" y="107" type="line"/>
      <point x="130" y="107" type="line"/>
      <point x="130" y="0" type="line"/>
      <point x="1015" y="0" type="line"/>
    </contour>
    <contour>
      <point x="584" y="1368" type="line"/>
      <point x="590" y="1456" type="line"/>
      <point x="509" y="1456" type="line"/>
      <point x="45" y="0" type="line"/>
      <point x="164" y="0" type="line"/>
    </contour>
    <contour>
      <point x="960" y="0" type="line"/>
      <point x="1079" y="0" type="line"/>
      <point x="615" y="1456" type="line"/>
      <point x="535" y="1456" type="line"/>
      <point x="540" y="1368" type="line"/>
    </contour>
    <contour>
      <point x="895" y="514" type="line"/>
      <point x="238" y="514" type="line"/>
      <point x="238" y="407" type="line"/>
      <point x="895" y="407" type="line"/>
    </contour>
  </outline>
</glyph>
<glyph name="uniA743" format="2">
  <advance width="897"/>
  <unicode hex="A743"/>
  <outline>
    <contour>
      <point x="744" y="610" type="line"/>
      <point x="369" y="188" type="line"/>
      <point x="435" y="113" type="line"/>
      <point x="809" y="535" type="line"/>
    </contour>
    <contour>
      <point x="260" y="1536" type="line"/>
      <point x="149" y="1536" type="line"/>
      <point x="149" y="0" type="line"/>
      <point x="260" y="0" type="line"/>
    </contour>
    <contour>
      <point x="827" y="1082" type="line"/>
      <point x="688" y="1082" type="line"/>
      <point x="353" y="678" type="line"/>
      <point x="204" y="490" type="line"/>
      <point x="219" y="370" type="line"/>
      <point x="408" y="580" type="line"/>
    </contour>
    <contour>
      <point x="729" y="0" type="line"/>
      <point x="862" y="0" type="line"/>
      <point x="420" y="666" type="line"/>
      <point x="360" y="561" type="line"/>
    </contour>
  </outline>
</glyph>
<glyph name="uniA770" format="2">
  <advance width="780"/>
  <unicode hex="A770"/>
  <outline>
    <contour>
      <point x="285" y="356" type="line"/>
      <point x="552" y="397"/>
      <point x="684" y="602"/>
      <point x="684" y="955" type="curve" smooth="yes"/>
      <point x="684" y="1053" type="line" smooth="yes"/>
      <point x="684" y="1318"/>
      <point x="563" y="1471"/>
      <point x="388" y="1471" type="curve" smooth="yes"/>
      <point x="216" y="1471"/>
      <point x="96" y="1303"/>
      <point x="96" y="1098" type="curve" smooth="yes"/>
      <point x="96" y="888"/>
      <point x="208" y="728"/>
      <point x="383" y="728" type="curve" smooth="yes"/>
      <point x="498" y="728"/>
      <point x="645" y="817"/>
      <point x="645" y="984" type="curve"/>
      <point x="612" y="982" type="line"/>
      <point x="593" y="899"/>
      <point x="520" y="828"/>
      <point x="383" y="828" type="curve" smooth="yes"/>
      <point x="263" y="828"/>
      <point x="199" y="944"/>
      <point x="199" y="1098" type="curve" smooth="yes"/>
      <point x="199" y="1247"/>
      <point x="268" y="1371"/>
      <point x="390" y="1371" type="curve" smooth="yes"/>
      <point x="518" y="1371"/>
      <point x="581" y="1263"/>
      <point x="581" y="1053" type="curve" smooth="yes"/>
      <point x="581" y="946" type="line" smooth="yes"/>
      <point x="581" y="646"/>
      <point x="472" y="495"/>
      <point x="255" y="451" type="curve"/>
    </contour>
  </outline>
</glyph>
<glyph name="uniA793" format="2">
  <advance width="1054"/>
  <unicode hex="A793"/>
  <outline>
    <contour>
      <point x="615" y="-20" type="curve" smooth="yes"/>
      <point x="802" y="-20"/>
      <point x="958" y="129"/>
      <point x="967" y="335" type="curve"/>
      <point x="861" y="335" type="line"/>
      <point x="851" y="172"/>
      <point x="739" y="84"/>
      <point x="615" y="84" type="curve" smooth="yes"/>
      <point x="410" y="84"/>
      <point x="335" y="290"/>
      <point x="335" y="520" type="curve" smooth="yes"/>
      <point x="335" y="562" type="line" smooth="yes"/>
      <point x="335" y="790"/>
      <point x="410" y="998"/>
      <point x="615" y="998" type="curve" smooth="yes"/>
      <point x="749" y="998"/>
      <point x="853" y="891"/>
      <point x="861" y="717" type="curve"/>
      <point x="967" y="717" type="line"/>
      <point x="959" y="952"/>
      <point x="812" y="1102"/>
      <point x="615" y="1102" type="curve" smooth="yes"/>
      <point x="357" y="1102"/>
      <point x="224" y="865"/>
      <point x="224" y="562" type="curve" smooth="yes"/>
      <point x="224" y="520" type="line" smooth="yes"/>
      <point x="224" y="217"/>
      <point x="357" y="-20"/>
    </contour>
    <contour>
      <point x="45" y="499" type="line"/>
      <point x="562" y="499" type="line"/>
      <point x="562" y="603" type="line"/>
      <point x="45" y="603" type="line"/>
    </contour>
  </outline>
</glyph>
<glyph name="uniA798" format="2">
  <advance width="1129"/>
  <unicode hex="A798"/>
  <outline>
    <contour>
      <point x="971" y="787" type="line"/>
      <point x="52" y="787" type="line"/>
      <point x="52" y="679" type="line"/>
      <point x="971" y="679" type="line"/>
    </contour>
    <contour>
      <point x="1055" y="1456" type="line"/>
      <point x="382" y="1456" type="line"/>
      <point x="382" y="1349" type="line"/>
      <point x="1055" y="1349" type="line"/>
    </contour>
    <contour>
      <point x="180" y="-437" type="curve" smooth="yes"/>
      <point x="323" y="-437"/>
      <point x="412" y="-330"/>
      <point x="412" y="-113" type="curve" smooth="yes"/>
      <point x="412" y="1456" type="line"/>
      <point x="297" y="1456" type="line"/>
      <point x="297" y="-113" type="line" smooth="yes"/>
      <point x="297" y="-266"/>
      <point x="254" y="-342"/>
      <point x="155" y="-342" type="curve" smooth="yes"/>
      <point x="134" y="-342"/>
      <point x="108" y="-335"/>
      <point x="92" y="-329" type="curve"/>
      <point x="87" y="-419" type="line"/>
      <point x="116" y="-430"/>
      <point x="149" y="-437"/>
    </contour>
  </outline>
</glyph>
<glyph name="uniA7A1" format="2">
  <advance width="1101"/>
  <unicode hex="A7A1"/>
  <outline>
    <contour>
      <point x="1059" y="726" type="line"/>
      <point x="37" y="403" type="line"/>
      <point x="42" y="316" type="line"/>
      <point x="1064" y="639" type="line"/>
    </contour>
    <contour>
      <point x="799" y="1082" type="line"/>
      <point x="790" y="844" type="line"/>
      <point x="790" y="15" type="line" smooth="yes"/>
      <point x="790" y="-201"/>
      <point x="693" y="-328"/>
      <point x="526" y="-328" type="curve" smooth="yes"/>
      <point x="431" y="-328"/>
      <point x="347" y="-281"/>
      <point x="274" y="-172" type="curve"/>
      <point x="213" y="-246" type="line"/>
      <point x="288" y="-371"/>
      <point x="424" y="-431"/>
      <point x="533" y="-431" type="curve" smooth="yes"/>
      <point x="755" y="-431"/>
      <point x="902" y="-263"/>
      <point x="902" y="19" type="curve" smooth="yes"/>
      <point x="902" y="1082" type="line"/>
    </contour>
    <contour>
      <point x="163" y="530" type="line"/>
      <point x="163" y="207"/>
      <point x="297" y="-20"/>
      <point x="514" y="-20" type="curve" smooth="yes"/>
      <point x="734" y="-20"/>
      <point x="849" y="156"/>
      <point x="875" y="401" type="curve"/>
      <point x="875" y="664" type="line"/>
      <point x="844" y="926"/>
      <point x="731" y="1102"/>
      <point x="515" y="1102" type="curve" smooth="yes"/>
      <point x="296" y="1102"/>
      <point x="163" y="886"/>
      <point x="163" y="551" type="curve" smooth="yes"/>
    </contour>
    <contour>
      <point x="274" y="551" type="line"/>
      <point x="274" y="801"/>
      <point x="356" y="996"/>
      <point x="538" y="996" type="curve" smooth="yes"/>
      <point x="723" y="996"/>
      <point x="793" y="824"/>
      <point x="818" y="684" type="curve"/>
      <point x="818" y="375" type="line"/>
      <point x="786" y="218"/>
      <point x="705" y="87"/>
      <point x="536" y="87" type="curve" smooth="yes"/>
      <point x="356" y="87"/>
      <point x="274" y="279"/>
      <point x="274" y="530" type="curve" smooth="yes"/>
    </contour>
  </outline>
</glyph>
<glyph name="uniA7AA" format="2">
  <advance width="1412"/>
  <unicode hex="A7AA"/>
  <outline>
    <contour>
      <point x="423" y="1456" type="line"/>
      <point x="308" y="1456" type="line" smooth="yes"/>
      <point x="141" y="1456"/>
      <point x="49" y="1362"/>
      <point x="49" y="1192" type="curve" smooth="yes"/>
      <point x="49" y="1156"/>
      <point x="53" y="1112"/>
      <point x="62" y="1077" type="curve"/>
      <point x="143" y="1082" type="line"/>
      <point x="137" y="1110"/>
      <point x="134" y="1135"/>
      <point x="134" y="1171" type="curve" smooth="yes"/>
      <point x="134" y="1289"/>
      <point x="190" y="1363"/>
      <point x="308" y="1363" type="curve" smooth="yes"/>
      <point x="423" y="1363" type="line"/>
    </contour>
    <contour>
      <point x="1143" y="804" type="line"/>
      <point x="416" y="804" type="line"/>
      <point x="416" y="697" type="line"/>
      <point x="1143" y="697" type="line"/>
    </contour>
    <contour>
      <point x="440" y="1456" type="line"/>
      <point x="325" y="1456" type="line"/>
      <point x="325" y="0" type="line"/>
      <point x="440" y="0" type="line"/>
    </contour>
    <contour>
      <point x="1238" y="1456" type="line"/>
      <point x="1123" y="1456" type="line"/>
      <point x="1123" y="0" type="line"/>
      <point x="1238" y="0" type="line"/>
    </contour>
  </outline>
</glyph>
<glyph name="Omega.smcp" format="2">
  <advance width="1097"/>
  <anchor x="551" y="10" name="bottom"/>
  <outline>
    <contour>
      <point x="853" y="617" type="line"/>
      <point x="853" y="310"/>
      <point x="763" y="181"/>
      <point x="616" y="118" type="curve"/>
      <point x="616" y="27" type="line"/>
      <point x="823" y="88"/>
      <point x="964" y="270"/>
      <point x="964" y="617" type="curve" smooth="yes"/>
      <point x="964" y="653" type="line" smooth="yes"/>
      <point x="964" y="945"/>
      <point x="812" y="1181"/>
      <point x="546" y="1181" type="curve" smooth="yes"/>
      <point x="281" y="1181"/>
      <point x="131" y="946"/>
      <point x="131" y="653" type="curve" smooth="yes"/>
      <point x="131" y="617" type="line" smooth="yes"/>
      <point x="131" y="269"/>
      <point x="273" y="86"/>
      <point x="483" y="27" type="curve"/>
      <point x="483" y="118" type="line"/>
      <point x="343" y="181"/>
      <point x="242" y="311"/>
      <point x="242" y="617" type="curve" smooth="yes"/>
      <point x="242" y="655" type="line" smooth="yes"/>
      <point x="242" y="881"/>
      <point x="337" y="1075"/>
      <point x="546" y="1075" type="curve" smooth="yes"/>
      <point x="757" y="1075"/>
      <point x="853" y="881"/>
      <point x="853" y="655" type="curve" smooth="yes"/>
    </contour>
    <contour>
      <point x="616" y="0" type="line"/>
      <point x="972" y="0" type="line"/>
      <point x="972" y="104" type="line"/>
      <point x="616" y="104" type="line"/>
    </contour>
    <contour>
      <point x="127" y="0" type="line"/>
      <point x="483" y="0" type="line"/>
      <point x="483" y="104" type="line"/>
      <point x="127" y="104" type="line"/>
    </contour>
  </outline>
</glyph>
<glyph name="brevehookcomb" format="2">
  <advance width="796"/>
  <outline>
    <contour>
      <point x="521" y="1456" type="line"/>
      <point x="521" y="1384"/>
      <point x="480" y="1320"/>
      <point x="375" y="1320" type="curve" smooth="yes"/>
      <point x="266" y="1320"/>
      <point x="226" y="1383"/>
      <point x="226" y="1456" type="curve"/>
      <point x="135" y="1456" type="line"/>
      <point x="135" y="1335"/>
      <point x="226" y="1250"/>
      <point x="375" y="1250" type="curve" smooth="yes"/>
      <point x="523" y="1250"/>
      <point x="613" y="1335"/>
      <point x="613" y="1456" type="curve"/>
    </contour>
    <contour>
      <point x="419" y="1456" type="line"/>
      <point x="419" y="1511" type="line"/>
      <point x="493" y="1520"/>
      <point x="559" y="1554"/>
      <point x="559" y="1640" type="curve" smooth="yes"/>
      <point x="559" y="1728"/>
      <point x="469" y="1782"/>
      <point x="319" y="1782" type="curve"/>
      <point x="313" y="1719" type="line"/>
      <point x="393" y="1719"/>
      <point x="471" y="1700"/>
      <point x="471" y="1642" type="curve" smooth="yes"/>
      <point x="471" y="1589"/>
      <point x="431" y="1570"/>
      <point x="339" y="1564" type="curve"/>
      <point x="339" y="1456" type="line"/>
    </contour>
  </outline>
</glyph>
<glyph name="circumflexgravecomb" format="2">
  <advance width="804"/>
  <outline>
    <contour>
      <point x="444" y="1470" type="line"/>
      <point x="341" y="1470" type="line"/>
      <point x="111" y="1227" type="line"/>
      <point x="238" y="1227" type="line"/>
      <point x="392" y="1399" type="line"/>
      <point x="547" y="1227" type="line"/>
      <point x="674" y="1227" type="line"/>
    </contour>
    <contour>
      <point x="43" y="1626" type="line"/>
      <point x="-82" y="1626" type="line"/>
      <point x="74" y="1395" type="line"/>
      <point x="165" y="1395" type="line"/>
    </contour>
  </outline>
</glyph>
<glyph name="four.smcp" format="2">
  <advance width="903"/>
  <guideline x="0.0" y="721.0" angle="0.0" identifier="U13uSjgyJD"/>
  <guideline x="0.0" y="521.0" angle="0.0" identifier="SaRSnTnbtP"/>
  <outline>
    <contour>
      <point x="853" y="390" type="line"/>
      <point x="195" y="390" type="line"/>
      <point x="540" y="931" type="line"/>
      <point x="658" y="1165" type="line"/>
      <point x="570" y="1165" type="line"/>
      <point x="69" y="360" type="line"/>
      <point x="70" y="286" type="line"/>
      <point x="853" y="286" type="line"/>
    </contour>
    <contour>
      <point x="689" y="1165" type="line"/>
      <point x="578" y="1165" type="line"/>
      <point x="578" y="0" type="line"/>
      <point x="689" y="0" type="line"/>
    </contour>
  </outline>
</glyph>
<glyph name="uni02E8_uni02E5_uni02E6" format="2">
  <advance width="1013"/>
  <outline>
    <contour>
      <point x="733" y="1456" type="line"/>
      <point x="733" y="1153" type="line"/>
      <point x="481" y="1456" type="line"/>
      <point x="146" y="377" type="line"/>
      <point x="233" y="338" type="line"/>
      <point x="518" y="1275" type="line"/>
      <point x="733" y="1012" type="line"/>
      <point x="733" y="0" type="line"/>
      <point x="844" y="0" type="line"/>
      <point x="844" y="1456" type="line"/>
    </contour>
  </outline>
</glyph>
<glyph name="uni041B.smcp" format="2">
  <advance width="1050"/>
  <anchor x="520" y="10" name="bottom"/>
  <outline>
    <contour>
      <point x="810" y="1165" type="line"/>
      <point x="308" y="1165" type="line"/>
      <point x="308" y="1061" type="line"/>
      <point x="810" y="1061" type="line"/>
    </contour>
    <contour>
      <point x="903" y="1165" type="line"/>
      <point x="792" y="1165" type="line"/>
      <point x="792" y="0" type="line"/>
      <point x="903" y="0" type="line"/>
    </contour>
    <contour>
      <point x="279" y="1165" type="line"/>
      <point x="262" y="654" type="line" smooth="yes"/>
      <point x="249" y="233"/>
      <point x="206" y="117"/>
      <point x="86" y="112" type="curve" smooth="yes"/>
      <point x="53" y="111" type="line"/>
      <point x="52" y="0" type="line"/>
      <point x="90" y="0" type="line" smooth="yes"/>
      <point x="293" y="0"/>
      <point x="358" y="189"/>
      <point x="373" y="653" type="curve" smooth="yes"/>
      <point x="390" y="1165" type="line"/>
    </contour>
  </outline>
</glyph>
<glyph name="uni0426.smcp" format="2">
  <advance width="1131"/>
  <outline>
    <contour>
      <point x="1049" y="104" type="line"/>
      <point x="818" y="104" type="line"/>
      <point x="818" y="0" type="line"/>
      <point x="939" y="0" type="line"/>
      <point x="939" y="-336" type="line"/>
      <point x="1040" y="-336" type="line"/>
    </contour>
    <contour>
      <point x="833" y="104" type="line"/>
      <point x="231" y="104" type="line"/>
      <point x="231" y="0" type="line"/>
      <point x="833" y="0" type="line"/>
    </contour>
    <contour>
      <point x="258" y="1165" type="line"/>
      <point x="147" y="1165" type="line"/>
      <point x="147" y="0" type="line"/>
      <point x="258" y="0" type="line"/>
    </contour>
    <contour>
      <point x="920" y="1165" type="line"/>
      <point x="809" y="1165" type="line"/>
      <point x="809" y="0" type="line"/>
      <point x="920" y="0" type="line"/>
    </contour>
  </outline>
</glyph>
